Coordinates
version=1
nRows=17
nColumns=36
inDegrees=yes

Units are S.I. units (second, meters, Newtons, ...)
If the header above contains a line with 'inDegrees', this indicates whether rotational values are in degrees (yes) or radians (no).

endheader
time	pelvis_tilt	pelvis_list	pelvis_rotation	pelvis_tx	pelvis_ty	pelvis_tz	hip_flexion_r	hip_adduction_r	hip_rotation_r	knee_angle_r	knee_angle_r_beta	ankle_angle_r	subtalar_angle_r	mtp_angle_r	hip_flexion_l	hip_adduction_l	hip_rotation_l	knee_angle_l	knee_angle_l_beta	ankle_angle_l	subtalar_angle_l	mtp_angle_l	lumbar_extension	lumbar_bending	lumbar_rotation	arm_flex_r	arm_add_r	arm_rot_r	elbow_flex_r	pro_sup_r	arm_flex_l	arm_add_l	arm_rot_l	elbow_flex_l	pro_sup_l
      4.39166670	     -7.03487919	     -2.76378470	     -2.97008330	      0.36732339	      1.06276608	      0.01538561	     15.90863701	     -2.19795166	     -2.14620703	     18.90210644	      0.32990399	     -5.46188104	     -6.53380167	     -7.49999987	     27.37875441	    -12.78120177	      4.25243497	     40.67756738	      0.70995748	      2.07080128	     -2.17817160	     -7.49999987	    -13.75266401	     -2.09535222	      0.82664955	      0.40787526	     -6.81117641	     -9.77968699	     27.17839523	     82.41460526	      0.64479345	     -7.92651623	     -2.33380896	     24.01967987	     84.09975670
      4.39583330	     -7.04716075	     -2.79961006	     -3.11923680	      0.36777009	      1.05881518	      0.01582941	     15.92559652	     -2.23310597	     -2.27226506	     18.68898231	      0.32618428	     -5.35767888	     -5.97119408	     -7.49999987	     27.46637479	    -12.84514212	      4.03458369	     40.67494357	      0.70991169	      2.12215902	     -2.15767930	     -7.49999987	    -13.68060891	     -2.02140368	      0.81958158	      0.39337090	     -6.72568383	     -9.97844801	     27.10674092	     82.72917692	      0.37771164	     -7.82579926	     -2.65192992	     24.05581863	     84.48832903
      4.40000000	     -7.27760464	     -2.84247779	     -3.16890513	      0.36505766	      1.05398470	      0.01382694	     16.32491794	     -2.28222605	     -2.40368382	     18.63988814	      0.32532742	     -5.35453889	     -6.00677156	     -7.49999987	     28.01869809	    -12.78326952	      4.09427585	     40.84576821	      0.71289314	      2.08316204	     -2.56150310	     -7.49999987	    -13.53484046	     -1.86687701	      0.78747438	      0.42945829	     -6.80028316	    -10.01198361	     27.08091541	     82.64593340	      0.24010944	     -7.69364110	     -2.80579258	     24.16399383	     84.37346209
      4.40416670	     -7.19154729	     -2.88600024	     -3.22896620	      0.36656398	      1.05156503	      0.01713207	     16.18219408	     -2.24417294	     -2.65531998	     18.26190695	      0.31873040	     -5.13541784	     -5.47014031	     -7.49999987	     28.01010032	    -12.87566010	      3.99276511	     40.78716360	      0.71187030	      2.14238492	     -2.41543622	     -7.49999987	    -13.72895720	     -1.84085077	      0.77260691	      0.47105655	     -6.77605942	     -9.94859267	     27.13106015	     83.73284777	      0.08181552	     -7.62858616	     -3.22315088	     24.31588983	     85.69942595
      4.40833330	     -7.18822837	     -2.98875726	     -3.26734719	      0.36729994	      1.04180634	      0.01598915	     16.33560647	     -2.17360074	     -2.80704798	     18.26835959	      0.31884302	     -4.85329913	     -5.60952585	     -7.49999987	     28.25281019	    -13.00098202	      3.87854417	     41.08642240	      0.71709335	      2.37122346	     -2.58381087	     -7.49999987	    -13.89322624	     -1.78870460	      0.87017424	      0.48223584	     -6.77501770	     -9.95417546	     27.15579578	     83.68595122	      0.06786797	     -7.59516020	     -3.24465563	     24.40193442	     85.65709273
      4.41250000	     -7.29587121	     -3.38817896	     -3.14651558	      0.36627381	      1.03958608	      0.01674638	     16.48189351	     -1.76965292	     -2.89312524	     18.05466753	      0.31511339	     -4.65489898	     -5.65544290	     -7.49999987	     28.81647368	    -13.39020922	      3.95751421	     41.54283443	      0.72505924	      2.51119771	     -2.75220242	     -7.49999987	    -13.94173843	     -1.31389259	      0.94116907	      0.52817939	     -6.85679247	    -10.00784345	     26.97177083	     82.65956083	      0.08949159	     -7.39869894	     -3.39006511	     24.44648660	     84.58842955
      4.41666670	     -7.25672185	     -3.46060836	     -3.06955377	      0.36771926	      1.03414330	      0.01630415	     16.50326099	     -1.77270451	     -2.84696906	     17.94675030	      0.31322988	     -4.61019885	     -5.66102321	     -7.49999987	     28.88876590	    -13.42960541	      3.88080468	     41.49103393	      0.72415515	      2.57061047	     -2.79931507	     -7.49999987	    -14.02932656	     -1.25619406	      0.96937362	      0.52514679	     -6.83750092	     -9.99761869	     26.88970820	     82.71021457	      0.07679831	     -7.38920541	     -3.38902542	     24.36679336	     84.64545276
      4.42083330	     -7.46547391	     -3.87122824	     -3.04322084	      0.36673158	      1.02378970	      0.01802478	     16.99104377	     -1.37277210	     -2.93165926	     18.19427866	      0.31755007	     -3.77316381	     -5.47399935	     -7.49999987	     29.68153433	    -13.95901198	      3.80606966	     42.27074314	      0.73776365	      3.40461055	     -2.60459535	     -7.49999987	    -13.98074055	     -0.70531106	      1.10877477	      0.61878327	     -6.97681419	     -9.92437635	     26.65745419	     82.28679718	      0.15687282	     -7.21420720	     -3.40561497	     24.31432419	     84.31140081
      4.42500000	     -7.68168134	     -4.15947779	     -2.99092943	      0.36654437	      1.01913297	      0.01961114	     17.34939901	     -0.94457648	     -2.76003215	     18.20557701	      0.31774726	     -3.69313773	     -5.90436955	     -7.49999987	     30.35280775	    -14.29500709	      3.91430147	     42.76764012	      0.74643613	      3.79176582	     -2.39684024	     -7.49999987	    -13.77274247	     -0.41186635	      1.27693590	      0.54611269	     -6.99137060	     -9.93657849	     26.58275467	     81.47219613	      0.07779025	     -7.15352264	     -3.40113553	     24.50273156	     83.49081627
      4.42916670	     -7.74250019	     -4.36133665	     -3.19481593	      0.36465121	      1.01243855	      0.01935916	     17.76238784	     -0.64165904	     -2.87292557	     18.53052793	      0.32341872	     -3.25091514	     -5.73493364	     -7.49999987	     30.73054254	    -14.58968155	      3.86785702	     43.08065035	      0.75189919	      4.32868131	     -1.69058747	     -7.49999987	    -13.82964369	     -0.21210367	      1.43634541	      0.70673101	     -7.04925876	     -9.73218517	     26.53622750	     81.61293613	      0.09547202	     -7.13415871	     -3.35070737	     24.53746882	     83.71805952
      4.43333330	     -7.76691573	     -4.55892056	     -3.36848733	      0.36364210	      1.01118525	      0.01835942	     18.02428866	     -0.46614703	     -2.92738274	     18.54458400	      0.32366405	     -3.49649478	     -5.24944019	     -7.49999987	     30.98139174	    -14.72144813	      3.95907368	     43.16403191	      0.75335448	      3.99781714	     -1.36444223	     -7.49999987	    -14.03811254	     -0.06781660	      1.57717551	      0.82826252	     -7.05147002	     -9.45107642	     26.58776349	     81.44541121	      0.02935379	     -7.07403794	     -3.36350655	     24.80602136	     83.58560948
      4.43750000	     -7.91804826	     -4.60913790	     -3.48567370	      0.36356339	      1.00585602	      0.01633324	     18.34959790	     -0.55448699	     -3.04647848	     18.37394901	      0.32068591	     -4.21282353	     -4.78928915	     -7.49999987	     31.24834651	    -14.57238106	      4.10713188	     43.03030091	      0.75102043	      3.45380870	     -1.12023853	     -7.49999987	    -14.03470263	      0.02962199	      1.61635442	      0.99043309	     -7.09132761	     -9.23571316	     26.54071870	     80.16278509	     -0.00664422	     -6.99838053	     -3.37670790	     25.02907470	     82.27269057
      4.44166670	     -7.76524999	     -4.63368334	     -3.54952314	      0.36739462	      0.99490090	      0.01488159	     18.25444271	     -0.86314737	     -3.61926093	     18.53367612	      0.32347367	     -4.37981599	     -4.38717272	     -7.49999987	     31.08524074	    -14.41982224	      4.18475906	     42.95937224	      0.74978249	      3.36120203	     -0.87754816	     -7.49999987	    -14.19001654	      0.15742242	      1.70143967	      1.05113379	     -7.12628011	     -9.82732226	     26.48025838	     85.88181556	     -0.00565556	     -6.83624744	     -4.86677441	     25.10234713	     90.38210856
      4.44583330	     -7.93531367	     -4.79008396	     -3.66541462	      0.36629660	      0.98531294	      0.01764921	     18.77185000	     -0.88926914	     -3.98599329	     19.01324013	      0.33184364	     -4.75248968	     -4.29344050	     -7.49999987	     31.50541037	    -14.56814338	      4.24568279	     43.31048931	      0.75591064	      3.39232982	     -0.59518955	     -7.49999987	    -14.01049441	      0.43269723	      1.90246099	      0.96798158	     -7.24595788	     -9.40932407	     26.35563327	     84.14588475	     -0.00129171	     -6.85981851	     -4.25712323	     25.07602306	     88.41436126
      4.45000000	     -8.01979560	     -5.01172796	     -3.72792504	      0.36307167	      0.98229952	      0.01700661	     19.21152901	     -0.84630838	     -4.28989443	     19.26537673	      0.33624426	     -5.56966206	     -3.96238472	     -7.49999987	     31.78766177	    -14.72255929	      4.46225373	     43.35904750	      0.75675814	      2.81411776	     -0.11004398	     -7.49999987	    -14.12233886	      0.79113190	      1.97245138	      1.09970555	     -7.29381199	     -9.41620916	     26.44998526	     83.42883925	      0.04754605	     -6.74617106	     -4.19515306	     25.30881619	     87.54062680
      4.45416670	     -8.01500848	     -5.14670812	     -3.78336595	      0.36456443	      0.97830456	      0.01711083	     19.37346544	     -0.78771912	     -4.43084402	     19.26911948	      0.33630958	     -6.38871047	     -3.70108070	     -7.49999987	     31.67217299	    -14.75706171	      4.76390073	     42.89230556	      0.74861196	      1.99688334	      0.60276609	     -7.49999987	    -14.06203546	      0.88593610	      1.99548277	      1.06714332	     -7.20687833	     -9.39815738	     26.36099457	     82.57238766	     -0.03008645	     -6.74429048	     -4.11328818	     25.45694800	     86.58284632
      4.45833330	     -7.68899398	     -5.18571590	     -3.69914184	      0.36742838	      0.97021489	      0.01692619	     18.98557159	     -0.85710131	     -4.50621358	     19.07635720	      0.33294524	     -6.45717907	     -3.17442151	     -7.49999987	     31.05347392	    -14.65317030	      4.78692964	     42.26995340	      0.73774986	      0.95063869	      0.97093671	     -7.49999987	    -14.44092692	      0.87414471	      1.90311265	      1.17213037	     -7.20302689	     -9.15201907	     26.22235000	     82.27252077	      0.12153015	     -6.90197628	     -3.75790917	     25.36167343	     86.26752727
